HIERARCHY
ROOT hip
{
	OFFSET	0.00  0.00  0.00 
	CHANNELS 6 Xposition Yposition Zposition Xrotation Zrotation Yrotation
	JOINT abdomen
	{
		OFFSET	0.000000 3.402643 0.000000
		CHANNELS 3 Xrotation Zrotation Yrotation
		JOINT chest
		{
			OFFSET	0.000000 8.438564 -0.680529
			CHANNELS 3 Xrotation Zrotation Yrotation
			JOINT neck
			{
				OFFSET	0.000000 10.207942 -0.272212
				CHANNELS 3 Xrotation Zrotation Yrotation
				JOINT head
				{
					OFFSET	0.000000 3.130431 0.000000
					CHANNELS 3 Xrotation Zrotation Yrotation
					End Site
					{
						OFFSET 0.000000 3.130435 0.000000
					}
				}
			}
			JOINT lCollar
			{
				OFFSET	3.538753 6.669187 -0.816635
				CHANNELS 3 Yrotation Zrotation Xrotation
				JOINT lShldr
				{
					OFFSET	3.130435 0.000000 0.000000
					CHANNELS 3 Zrotation Yrotation Xrotation
					JOINT lForeArm
					{
						OFFSET	10.207940 0.000000 0.000000
						CHANNELS 3 Yrotation Zrotation Xrotation
						JOINT lHand
						{
							OFFSET	8.302459 0.000000 0.000000
							CHANNELS 3 Zrotation Yrotation Xrotation
							End Site
							{
								OFFSET 4.083176 0.000000 0.000000
							}
						}
					}
				}
			}
			JOINT rCollar
			{
				OFFSET	-3.538753 6.669187 -0.816635
				CHANNELS 3 Yrotation Zrotation Xrotation
				JOINT rShldr
				{
					OFFSET	-3.130435 0.000000 0.000000
					CHANNELS 3 Zrotation Yrotation Xrotation
					JOINT rForeArm
					{
						OFFSET	-10.207940 0.000000 0.000000
						CHANNELS 3 Yrotation Zrotation Xrotation
						JOINT rHand
						{
							OFFSET	-8.302459 0.000000 0.000000
							CHANNELS 3 Zrotation Yrotation Xrotation
							End Site
							{
								OFFSET -4.083176 0.000000 0.000000
							}
						}
					}
				}
			}
		}
	}
	JOINT lThigh
	{
		OFFSET	5.308129 -1.633274 1.361059
		CHANNELS 3 Xrotation Zrotation Yrotation
		JOINT lShin
		{
			OFFSET	-2.041588 -20.007561 0.000000
			CHANNELS 3 Xrotation Zrotation Yrotation
			JOINT lFoot
			{
				OFFSET	0.000000 -19.190928 -1.224953
				CHANNELS 3 Xrotation Yrotation Zrotation
				End Site
				{
					OFFSET 0.000000 -2.449905 4.627600
				}
			}
		}
	}
	JOINT rThigh
	{
		OFFSET	-5.308129 -1.633274 1.361059
		CHANNELS 3 Xrotation Zrotation Yrotation
		JOINT rShin
		{
			OFFSET	2.041588 -20.007561 0.000000
			CHANNELS 3 Xrotation Zrotation Yrotation
			JOINT rFoot
			{
				OFFSET	0.000000 -19.190928 -1.224953
				CHANNELS 3 Xrotation Yrotation Zrotation
				End Site
				{
					OFFSET 0.000000 -2.449905 4.627600
				}
			}
		}
	}
}
MOTION
Frames:     21
Frame Time: 0.033333
0.000000 43.729870 0.000000 0.000000 0.000000 0.000000 0.000000 3.332466 0.850855 0.000188 1.738161 -0.137029 0.000000 -4.994884 0.000000 0.000000 -2.278408 0.000000 -3.474449 29.799269 3.051924 -95.376884 0.094096 29.186300 -12.807368 -1.914827 -0.495547 -15.311378 -7.067645 5.564337 0.720920 30.000000 -0.071093 26.000000 -2.163930 20.993099 0.331721 0.467501 -0.361328 0.726414 3.886500 2.517900 0.000000 0.000000 0.000000 0.009766 0.000000 0.000000 -0.097656 0.000000 0.000000 0.000000 -0.019531 0.000000 0.009766 0.019531 -0.009766 0.166016 0.009766 0.000000 
0.000000 43.729870 0.000000 0.000000 0.000000 0.000000 0.000000 2.311768 0.592909 0.000188 1.216574 -0.137029 0.000000 -3.714433 0.000000 0.000000 -1.797407 0.000000 -5.330373 21.811190 5.032317 -79.062401 0.044370 30.000000 -25.222708 -2.618436 -0.555350 -30.314457 -9.181648 7.890684 0.720920 30.000000 -0.071093 26.000000 -2.163930 20.993099 0.331721 0.467501 -0.361328 0.726414 3.886500 2.517900 0.000000 0.000000 0.000000 0.009766 0.000000 0.000000 -0.097656 0.000000 0.000000 0.000000 -0.019531 0.000000 0.009766 0.019531 -0.009766 0.166016 0.009766 0.000000 
0.000000 43.729870 0.000000 0.000000 0.000000 0.000000 0.000000 1.221788 0.314317 0.000188 0.646859 -0.137029 0.000000 -2.052998 0.000000 0.000000 -1.028093 0.000000 -7.328929 11.523947 6.875931 -56.192062 -0.005654 30.000000 -37.958759 -3.233133 -0.601184 -47.328365 -11.249829 10.172135 0.720920 30.000000 -0.071093 26.000000 -2.163930 20.993099 0.331721 0.467501 -0.361328 0.726414 3.886500 2.517900 0.000000 0.000000 0.000000 0.009766 0.000000 0.000000 -0.097656 0.000000 0.000000 0.000000 -0.019531 0.000000 0.009766 0.019531 -0.009766 0.166016 0.009766 0.000000 
0.000000 43.729870 0.000000 0.000000 0.000000 0.000000 0.000000 0.354031 0.091279 0.000188 0.188254 -0.137029 0.000000 -0.613784 0.000000 0.000000 -0.314334 0.000000 -9.192760 1.157018 8.244568 -31.850435 -0.048797 30.000000 -48.319508 -3.702263 -0.626229 -64.005943 -12.976108 11.973454 0.720920 30.000000 -0.071093 26.000000 -2.163930 20.993099 0.331721 0.467501 -0.361328 0.726414 3.886500 2.517900 0.000000 0.000000 0.000000 0.009766 0.000000 0.000000 -0.097656 0.000000 0.000000 0.000000 -0.019531 0.000000 0.009766 0.019531 -0.009766 0.166016 0.009766 0.000000 
0.000000 43.729870 0.000000 0.000000 0.000000 0.000000 0.000000 0.000000 0.000000 0.000188 0.000000 -0.137029 0.000000 0.000000 0.000000 0.000000 0.000000 0.000000 -10.644500 -7.070110 8.800030 -11.122100 -0.077877 28.769501 -53.608898 -3.969170 -0.623662 -78.000000 -14.064400 12.859400 0.720920 30.000000 -0.071093 26.000000 -2.163930 20.993099 0.331721 0.467501 -0.361328 0.726414 3.886500 2.517900 0.000000 0.000000 0.000000 0.009766 0.000000 0.000000 -0.097656 0.000000 0.000000 0.000000 -0.019531 0.000000 0.009766 0.019531 -0.009766 0.166016 0.009766 0.000000 
0.000000 43.729870 0.000000 0.000000 0.000000 0.000000 0.000000 0.000000 0.000000 0.000188 0.000000 -0.137029 0.000000 0.000000 0.000000 0.000000 0.000000 0.000000 -11.477826 -11.470081 8.313553 2.052135 -0.087786 24.761747 -51.928413 -3.997724 -0.589520 -80.000000 -14.306027 12.527353 0.720920 30.000000 -0.071093 26.000000 -2.163930 20.993099 0.331721 0.467501 -0.361328 0.726414 3.886500 2.517900 0.000000 0.000000 0.000000 0.009766 0.000000 0.000000 -0.097656 0.000000 0.000000 0.000000 -0.019531 0.000000 0.009766 0.019531 -0.009766 0.166016 0.009766 0.000000 
0.000000 43.729870 0.000000 0.000000 0.000000 0.000000 0.000000 0.000000 0.000000 0.000188 0.000000 -0.137029 0.000000 0.000000 0.000000 0.000000 0.000000 0.000000 -11.770553 -12.484036 6.994111 8.306490 -0.081696 19.650326 -44.569515 -3.833898 -0.531281 -80.000000 -13.841925 11.205150 0.720920 30.000000 -0.071093 26.000000 -2.163930 20.993099 0.331721 0.467501 -0.361328 0.726414 3.886500 2.517900 0.000000 0.000000 0.000000 0.009766 0.000000 0.000000 -0.097656 0.000000 0.000000 0.000000 -0.019531 0.000000 0.009766 0.019531 -0.009766 0.166016 0.009766 0.000000 
0.000000 43.729870 0.000000 0.000000 0.000000 0.000000 0.000000 0.000000 0.000000 0.000188 0.000000 -0.137029 0.000000 0.000000 0.000000 0.000000 0.000000 0.000000 -11.671533 -11.085237 5.160108 9.418941 -0.064848 14.026840 -33.621174 -3.544189 -0.459284 -80.000000 -12.900433 9.253242 0.720920 30.000000 -0.071093 26.000000 -2.163930 20.993099 0.331721 0.467501 -0.361328 0.726414 3.886500 2.517900 0.000000 0.000000 0.000000 0.009766 0.000000 0.000000 -0.097656 0.000000 0.000000 0.000000 -0.019531 0.000000 0.009766 0.019531 -0.009766 0.166016 0.009766 0.000000 
0.000000 43.729870 0.000000 0.000000 0.000000 0.000000 0.000000 0.000000 0.000000 0.000188 0.000000 -0.137029 0.000000 0.000000 0.000000 0.000000 0.000000 0.000000 -11.329617 -8.246942 3.129952 7.167462 -0.042487 8.482888 -21.172354 -3.195096 -0.383866 -80.000000 -11.709887 7.032079 0.720920 30.000000 -0.071093 26.000000 -2.163930 20.993099 0.331721 0.467501 -0.361328 0.726414 3.886500 2.517900 0.000000 0.000000 0.000000 0.009766 0.000000 0.000000 -0.097656 0.000000 0.000000 0.000000 -0.019531 0.000000 0.009766 0.019531 -0.009766 0.166016 0.009766 0.000000 
0.000000 43.729870 0.000000 0.000000 0.000000 0.000000 0.000000 0.000000 0.000000 0.000188 0.000000 -0.137029 0.000000 0.000000 0.000000 0.000000 0.000000 0.000000 -10.893655 -4.942420 1.222050 3.330037 -0.019854 3.610078 -9.312043 -2.853117 -0.315366 -80.000000 -10.498627 4.902115 0.720920 30.000000 -0.071093 26.000000 -2.163930 20.993099 0.331721 0.467501 -0.361328 0.726414 3.886500 2.517900 0.000000 0.000000 0.000000 0.009766 0.000000 0.000000 -0.097656 0.000000 0.000000 0.000000 -0.019531 0.000000 0.009766 0.019531 -0.009766 0.166016 0.009766 0.000000 
0.000000 43.729870 0.000000 0.000000 0.000000 0.000000 0.000000 0.000000 0.000000 0.000188 0.000000 -0.137029 0.000000 0.000000 0.000000 0.000000 0.000000 0.000000 -10.512500 -2.144930 -0.245191 -0.315366 -0.002192 0.000000 -0.129188 -2.584750 -0.264121 -69.860603 -9.494990 3.223800 0.720920 30.000000 -0.071093 26.000000 -2.163930 20.993099 0.331721 0.467501 -0.361328 0.726414 3.886500 2.517900 0.000000 0.000000 0.000000 0.009766 0.000000 0.000000 -0.097656 0.000000 0.000000 0.000000 -0.019531 0.000000 0.009766 0.019531 -0.009766 0.166016 0.009766 0.000000 
0.000000 43.729870 0.000000 0.000000 0.000000 0.000000 0.000000 0.000000 0.000000 0.000188 0.000000 -0.137029 0.000000 0.000000 0.000000 0.000000 0.000000 0.000000 -10.301696 -0.603840 -1.038040 -2.369160 0.006572 -1.931601 4.834008 -2.439565 -0.237576 -55.854183 -8.872667 2.264731 0.720920 30.000000 -0.071093 26.000000 -2.163930 20.993099 0.331721 0.467501 -0.361328 0.726414 3.886500 2.517900 0.000000 0.000000 0.000000 0.009766 0.000000 0.000000 -0.097656 0.000000 0.000000 0.000000 -0.019531 0.000000 0.009766 0.019531 -0.009766 0.166016 0.009766 0.000000 
0.000000 43.729870 0.000000 0.000000 0.000000 0.000000 0.000000 0.000000 0.000000 0.000188 0.000000 -0.137029 0.000000 0.000000 0.000000 0.000000 0.000000 0.000000 -10.243559 -0.172921 -1.261468 -2.945358 0.007781 -2.472450 6.222488 -2.399420 -0.231603 -40.444187 -8.586746 1.921081 0.720920 30.000000 -0.071093 26.000000 -2.163930 20.993099 0.331721 0.467501 -0.361328 0.726414 3.886500 2.517900 0.000000 0.000000 0.000000 0.009766 0.000000 0.000000 -0.097656 0.000000 0.000000 0.000000 -0.019531 0.000000 0.009766 0.019531 -0.009766 0.166016 0.009766 0.000000 
0.000000 43.729870 0.000000 0.000000 0.000000 0.000000 0.000000 0.000000 0.000000 0.000188 0.000000 -0.137029 0.000000 0.000000 0.000000 0.000000 0.000000 0.000000 -10.287100 -0.482051 -1.105119 -2.536362 0.004093 -2.086130 5.227959 -2.429245 -0.239180 -25.392218 -8.537669 1.996169 0.720920 30.000000 -0.071093 26.000000 -2.163930 20.993099 0.331721 0.467501 -0.361328 0.726414 3.886500 2.517900 0.000000 0.000000 0.000000 0.009766 0.000000 0.000000 -0.097656 0.000000 0.000000 0.000000 -0.019531 0.000000 0.009766 0.019531 -0.009766 0.166016 0.009766 0.000000 
0.000000 43.729870 0.000000 0.000000 0.000000 0.000000 0.000000 0.000000 0.000000 0.000188 0.000000 -0.137029 0.000000 0.000000 0.000000 0.000000 0.000000 0.000000 -10.381330 -1.161107 -0.758642 -1.634578 -0.001833 -1.236225 3.042129 -2.493968 -0.253286 -12.459807 -8.625875 2.293314 0.720920 30.000000 -0.071093 26.000000 -2.163930 20.993099 0.331721 0.467501 -0.361328 0.726414 3.886500 2.517900 0.000000 0.000000 0.000000 0.009766 0.000000 0.000000 -0.097656 0.000000 0.000000 0.000000 -0.019531 0.000000 0.009766 0.019531 -0.009766 0.166016 0.009766 0.000000 
0.000000 43.729870 0.000000 0.000000 0.000000 0.000000 0.000000 0.000000 0.000000 0.000188 0.000000 -0.137029 0.000000 0.000000 0.000000 0.000000 0.000000 0.000000 -10.475260 -1.839964 -0.411682 -0.732411 -0.007339 -0.386321 0.856711 -2.558520 -0.266899 -3.408551 -8.751808 2.615834 0.720920 30.000000 -0.071093 26.000000 -2.163930 20.993099 0.331721 0.467501 -0.361328 0.726414 3.886500 2.517900 0.000000 0.000000 0.000000 0.009766 0.000000 0.000000 -0.097656 0.000000 0.000000 0.000000 -0.019531 0.000000 0.009766 0.019531 -0.009766 0.166016 0.009766 0.000000 
0.000000 43.729870 0.000000 0.000000 0.000000 0.000000 0.000000 0.000000 0.000000 0.000188 0.000000 -0.137029 0.000000 0.000000 0.000000 0.000000 0.000000 0.000000 -10.517900 -2.148500 -0.253886 -0.322266 -0.009766 0.000000 -0.136588 -2.587830 -0.272997 0.000000 -8.815910 2.767050 0.720920 30.000000 -0.071093 26.000000 -2.163930 20.993099 0.331721 0.467501 -0.361328 0.726414 3.886500 2.517900 0.000000 0.000000 0.000000 0.009766 0.000000 0.000000 -0.097656 0.000000 0.000000 0.000000 -0.019531 0.000000 0.009766 0.019531 -0.009766 0.166016 0.009766 0.000000 
0.000000 43.729870 0.000000 0.000000 0.000000 0.000000 0.000000 0.000000 0.000000 0.000188 0.000000 -0.137029 0.000000 0.000000 0.000000 0.000000 0.000000 0.000000 -10.517900 -2.148500 -0.253887 -0.322268 -0.009768 0.000000 -0.136589 -2.587828 -0.272997 0.000000 -8.815909 2.767053 0.720920 30.000000 -0.071093 26.000000 -2.163930 20.993099 0.331721 0.467501 -0.361328 0.726414 3.886500 2.517900 0.000000 0.000000 0.000000 0.009766 0.000000 0.000000 -0.097656 0.000000 0.000000 0.000000 -0.019531 0.000000 0.009766 0.019531 -0.009766 0.166016 0.009766 0.000000 
0.000000 43.729870 0.000000 0.000000 0.000000 0.000000 0.000000 0.000000 0.000000 0.000188 0.000000 -0.137029 0.000000 0.000000 0.000000 0.000000 0.000000 0.000000 -10.517900 -2.148500 -0.253888 -0.322270 -0.009769 0.000000 -0.136589 -2.587827 -0.272997 0.000000 -8.815908 2.767056 0.720920 30.000000 -0.071093 26.000000 -2.163930 20.993099 0.331721 0.467501 -0.361328 0.726414 3.886500 2.517900 0.000000 0.000000 0.000000 0.009766 0.000000 0.000000 -0.097656 0.000000 0.000000 0.000000 -0.019531 0.000000 0.009766 0.019531 -0.009766 0.166016 0.009766 0.000000 
0.000000 43.729870 0.000000 0.000000 0.000000 0.000000 0.000000 0.000000 0.000000 0.000188 0.000000 -0.137029 0.000000 0.000000 0.000000 0.000000 0.000000 0.000000 -10.517900 -2.148500 -0.253888 -0.322272 -0.009771 0.000000 -0.136590 -2.587825 -0.272998 0.000000 -8.815907 2.767059 0.720920 30.000000 -0.071093 26.000000 -2.163930 20.993099 0.331721 0.467501 -0.361328 0.726414 3.886500 2.517900 0.000000 0.000000 0.000000 0.009766 0.000000 0.000000 -0.097656 0.000000 0.000000 0.000000 -0.019531 0.000000 0.009766 0.019531 -0.009766 0.166016 0.009766 0.000000 
0.000000 43.729870 0.000000 0.000000 0.000000 0.000000 0.000000 0.000000 0.000000 0.000188 0.000000 -0.137029 0.000000 0.000000 0.000000 0.000000 0.000000 0.000000 -10.517900 -2.148500 -0.253889 -0.322274 -0.009773 0.000000 -0.136591 -2.587823 -0.272998 0.000000 -8.815907 2.767061 0.720920 30.000000 -0.071093 26.000000 -2.163930 20.993099 0.331721 0.467501 -0.361328 0.726414 3.886500 2.517900 0.000000 0.000000 0.000000 0.009766 0.000000 0.000000 -0.097656 0.000000 0.000000 0.000000 -0.019531 0.000000 0.009766 0.019531 -0.009766 0.166016 0.009766 0.000000 
